<?xml version="1.0" standalone="no"?>
<!DOCTYPE svg PUBLIC "-//W3C//DTD SVG 20010904//EN"
 "https://www.w3.org/TR/2001/REC-SVG-20010904/DTD/svg10.dtd">
<svg version="1.0" xmlns="http://www.w3.org/2000/svg"
 width="400.000000pt" height="400.000000pt" viewBox="0 0 400.000000 400.000000"
 preserveAspectRatio="xMidYMid meet">
<metadata>
Created by potrace 1.14, written by Peter Selinger 2001-2017
</metadata>
<g transform="translate(0.000000,400.000000) scale(0.100000,-0.100000)"
fill="#000000" stroke="none">
<path d="M1788 3305 c-2 -2 -32 -5 -67 -6 -70 -3 -186 -23 -241 -41 -33 -12
-117 -61 -150 -90 -81 -68 -142 -250 -157 -461 -5 -80 -9 -94 -30 -110 -84
-66 -86 -258 -4 -331 13 -12 21 -31 21 -49 0 -96 63 -230 141 -303 30 -27 110
-71 188 -101 23 -9 23 -10 -38 -78 -34 -39 -73 -95 -88 -125 -15 -30 -31 -58
-36 -61 -5 -4 -12 -27 -14 -53 -5 -37 -3 -46 10 -46 21 0 21 -98 0 -162 -23
-71 -14 -134 28 -194 19 -27 41 -54 49 -61 17 -14 76 -17 84 -4 3 4 1 33 -5
62 -9 40 -8 62 1 84 l11 30 28 -34 c18 -22 34 -32 47 -29 25 5 21 38 -13 133
-28 80 -31 114 -11 129 20 15 34 44 42 87 3 20 17 46 30 58 l24 23 7 -77 c7
-72 4 -153 -11 -271 -3 -29 -2 -54 3 -57 6 -4 5 -38 -2 -89 -14 -90 -27 -226
-30 -298 -1 -25 -5 -53 -9 -62 -5 -10 -6 -25 -2 -33 3 -9 0 -15 -10 -15 -14 0
-106 -38 -144 -59 -22 -12 -40 -51 -40 -88 0 -27 5 -33 38 -44 86 -30 494 12
507 51 7 23 17 109 15 140 -3 75 -1 221 4 260 9 71 37 156 46 140 22 -43 41
-181 40 -295 -3 -170 2 -241 18 -257 4 -4 66 -17 137 -29 161 -26 314 -29 369
-5 37 15 38 18 33 52 -4 20 -14 45 -24 56 -19 21 -101 63 -145 73 -23 6 -27
11 -22 30 3 13 1 26 -6 30 -6 4 -8 16 -4 27 3 11 1 48 -5 81 -6 34 -12 82 -15
107 -2 25 -10 85 -16 133 -9 63 -9 91 -1 101 6 7 9 15 7 17 -2 2 -7 33 -11 69
-4 36 -9 74 -12 85 -6 28 7 225 15 225 14 0 50 -66 56 -102 4 -21 15 -43 25
-50 24 -17 29 -54 14 -93 -27 -71 -53 -167 -48 -175 12 -20 44 -9 66 21 21 30
23 31 36 13 15 -20 17 -65 5 -109 -12 -42 -5 -55 31 -55 40 1 55 12 100 80 31
45 37 64 37 106 0 28 -6 69 -14 90 -18 52 -14 144 6 155 12 7 14 18 8 50 -4
23 -12 44 -16 48 -5 3 -21 31 -35 61 -15 30 -59 92 -98 138 -66 75 -70 82 -47
82 73 0 199 69 251 138 32 41 77 158 89 229 2 15 5 29 6 31 2 1 3 6 4 11 0 5
13 21 29 36 76 77 71 253 -11 322 -22 19 -26 31 -29 85 -11 243 -64 404 -159
488 -63 55 -175 101 -284 115 -25 3 -54 9 -64 12 -19 5 -533 13 -538 8z"/>
</g>
</svg>
